# xmcd
# Track frame offsets:
# 150
# 20557
# 40490
# 70691
# 92129
# 124644
# 143645
# 165551
# 198693
# 221745
# 248855
# 267660
#
# Disc length: 3888 seconds
# Revision: 0
# Processed by: cddbd v1.5.2PL0 Copyright (c) Steve Scherf et al.
# Submitted via: VisiTrax 2.10.0.248 - For more info visit www.synapsa.com
#
DISCID=b50f2e0c
DTITLE=Rolls, Maria - The Blues Is Right
DYEAR=2007
DGENRE=Blues
TTITLE0=Get Me Out Of Here
TTITLE1=Bring Your Blues Home To Me
TTITLE2=The Blues Is A Lady
TTITLE3=Sell Your Drama To Your Mama
TTITLE4=Blinded By Your Love
TTITLE5=It's Time To Get The Story Right
TTITLE6=Money Back Guarantee
TTITLE7=Longing For The Sixties Tonight
TTITLE8=Making Sombody Rich
TTITLE9=Illegitimate
TTITLE10=Goodbye To The Lonely Girl
TTITLE11=Always Hang On To Your Dream
EXTD=
EXTT0=
EXTT1=
EXTT2=
EXTT3=
EXTT4=
EXTT5=
EXTT6=
EXTT7=
EXTT8=
EXTT9=
EXTT10=
EXTT11=
PLAYORDER=
